<?xml version="1.0" encoding="iso-8859-1"?>
<!-- Generator: Adobe Illustrator 19.0.0, SVG Export Plug-In . SVG Version: 6.00 Build 0)  -->
<svg version="1.1" id="Layer_1" xmlns="http://www.w3.org/2000/svg" xmlns:xlink="http://www.w3.org/1999/xlink" x="0px" y="0px"
	 viewBox="0 0 511.996 511.996" style="enable-background:new 0 0 511.996 511.996;" xml:space="preserve">
<path style="fill:#FF3F62;" d="M422.056,235.442c-6.656-3.172-13.592-5.847-20.757-7.986c-6.728-2.011-13.661-3.542-20.757-4.564
	c-6.782-0.973-13.709-1.489-20.757-1.489c-1.769,0-3.531,0.033-5.283,0.095c-5.232,0.192-10.394,0.664-15.474,1.393
	c-10.836,1.557-21.288,4.313-31.218,8.131c-0.199,0.077-0.394,0.159-0.594,0.238c-1.425,0.553-2.844,1.128-4.247,1.726
	c-0.317,0.137-0.631,0.281-0.948,0.419c-1.277,0.555-2.549,1.121-3.805,1.712c-0.606,0.284-1.203,0.581-1.803,0.873
	c-1.358,0.661-2.705,1.344-4.041,2.047c-0.681,0.358-1.367,0.71-2.042,1.078c-0.707,0.386-1.402,0.789-2.101,1.187
	c-0.657,0.372-1.315,0.744-1.965,1.126c-0.682,0.401-1.358,0.815-2.031,1.227c-0.664,0.405-1.323,0.814-1.979,1.229
	c-0.648,0.41-1.291,0.823-1.929,1.243c-0.693,0.454-1.378,0.916-2.062,1.381c-0.591,0.401-1.18,0.8-1.764,1.209
	c-0.823,0.578-1.636,1.171-2.447,1.764c-0.429,0.316-0.866,0.621-1.292,0.942c-1.205,0.905-2.397,1.829-3.573,2.77
	c-0.4,0.321-0.792,0.652-1.189,0.974c-0.819,0.67-1.636,1.344-2.44,2.031c-0.439,0.374-0.872,0.756-1.305,1.135
	c-0.765,0.668-1.522,1.344-2.274,2.029c-0.414,0.378-0.825,0.754-1.233,1.135c-0.796,0.743-1.582,1.496-2.359,2.256
	c-0.338,0.329-0.679,0.657-1.014,0.991c-1.023,1.017-2.034,2.048-3.026,3.097c-0.076,0.079-0.151,0.154-0.227,0.234
	c-1.106,1.173-2.192,2.365-3.26,3.574c-0.17,0.195-0.336,0.393-0.506,0.588c-0.866,0.991-1.72,1.993-2.559,3.007
	c-0.271,0.328-0.538,0.661-0.808,0.992c-0.65,0.8-1.29,1.611-1.923,2.426c-0.645,0.828-1.274,1.665-1.901,2.507
	c-0.469,0.632-0.944,1.262-1.403,1.901c-0.702,0.976-1.382,1.968-2.06,2.961c-0.356,0.52-0.721,1.032-1.07,1.558
	c-1.003,1.514-1.982,3.044-2.928,4.596c-0.228,0.375-0.443,0.76-0.668,1.136c-0.731,1.222-1.452,2.451-2.146,3.693
	c-0.306,0.544-0.596,1.097-0.894,1.645c-0.599,1.106-1.19,2.218-1.762,3.339c-0.295,0.578-0.583,1.161-0.869,1.744
	c-0.533,1.085-1.053,2.177-1.56,3.277c-0.321,0.697-0.641,1.396-0.952,2.099c-0.47,1.067-0.926,2.141-1.373,3.22
	c-0.298,0.722-0.598,1.445-0.884,2.171c-0.421,1.067-0.822,2.142-1.218,3.219c-0.288,0.786-0.583,1.571-0.858,2.363
	c-0.26,0.749-0.505,1.504-0.754,2.26c-0.321,0.976-0.639,1.953-0.941,2.938c-0.238,0.776-0.465,1.557-0.689,2.337
	c-0.256,0.895-0.509,1.789-0.75,2.69c-0.208,0.782-0.405,1.569-0.602,2.355c-0.232,0.938-0.462,1.876-0.675,2.82
	c-0.172,0.753-0.332,1.511-0.491,2.268c-0.208,0.991-0.411,1.983-0.599,2.979c-0.137,0.728-0.264,1.46-0.39,2.192
	c-0.179,1.028-0.349,2.058-0.504,3.093c-0.113,0.757-0.217,1.518-0.321,2.278c-0.127,0.944-0.249,1.887-0.357,2.837
	c-0.097,0.843-0.18,1.69-0.262,2.536c-0.084,0.861-0.165,1.721-0.232,2.586c-0.08,1.012-0.143,2.029-0.201,3.046
	c-0.046,0.796-0.097,1.591-0.13,2.393c-0.022,0.49-0.037,0.98-0.054,1.471c-0.047,1.504-0.083,3.011-0.083,4.526
	c0,1.928,0.05,3.841,0.125,5.751c0.012,0.315,0.022,0.63,0.036,0.944c0.084,1.846,0.202,3.682,0.357,5.509
	c0.025,0.299,0.053,0.596,0.08,0.894c0.172,1.903,0.369,3.798,0.614,5.679c0.001,0.014,0.003,0.029,0.006,0.043
	c0.256,1.977,0.558,3.941,0.894,5.894c0.017,0.091,0.03,0.184,0.046,0.275c0.336,1.929,0.714,3.846,1.125,5.75
	c0.028,0.125,0.054,0.25,0.082,0.375c1.299,5.914,2.953,11.697,4.947,17.322c1.261,3.554,2.656,7.043,4.176,10.466
	c0.029,0.064,0.055,0.127,0.084,0.19c0.711,1.596,1.457,3.174,2.224,4.741c0.13,0.263,0.262,0.527,0.393,0.79
	c0.761,1.528,1.54,3.043,2.352,4.54c0.008,0.012,0.014,0.025,0.021,0.036c0.924,1.699,1.887,3.372,2.877,5.029
	c0.115,0.192,0.227,0.385,0.34,0.576c0.967,1.601,1.966,3.181,2.992,4.742c0.136,0.205,0.27,0.412,0.407,0.617
	c1.048,1.576,2.12,3.132,3.227,4.663c0.098,0.136,0.198,0.27,0.296,0.405c1.161,1.596,2.348,3.172,3.57,4.717h-0.001
	c26.634,33.69,67.847,55.348,114.027,55.348c80.117,0,145.298-65.179,145.298-145.298
	C505.084,308.857,471.102,258.804,422.056,235.442z M401.299,387.459h-41.514h-41.514c-11.463,0-20.757-9.294-20.757-20.757
	s9.294-20.757,20.757-20.757h41.514h41.514c11.463,0,20.757,9.294,20.757,20.757C422.056,378.165,412.763,387.459,401.299,387.459z"
	/>
<path style="fill:#E0E0E2;" d="M241.894,451.53c-1.106-1.532-2.181-3.087-3.227-4.663c-0.137-0.205-0.271-0.412-0.407-0.617
	c-1.025-1.561-2.024-3.14-2.992-4.742c-0.113-0.191-0.226-0.383-0.34-0.576c-0.989-1.656-1.954-3.329-2.877-5.029
	c-0.001-0.003-0.003-0.006-0.004-0.007c-0.006-0.011-0.011-0.021-0.017-0.03c-0.812-1.496-1.591-3.014-2.352-4.54
	c-0.131-0.263-0.264-0.526-0.393-0.79c-0.769-1.565-1.511-3.144-2.224-4.741c-0.029-0.062-0.055-0.126-0.084-0.19
	c-3.934-8.836-7.008-18.133-9.123-27.788c-0.028-0.125-0.054-0.25-0.082-0.375c-0.412-1.904-0.79-3.821-1.125-5.75
	c-0.017-0.091-0.029-0.184-0.046-0.275c-0.336-1.953-0.638-3.916-0.894-5.894c-0.003-0.015-0.004-0.03-0.006-0.043
	c-0.245-1.882-0.444-3.776-0.614-5.679c-0.028-0.299-0.055-0.596-0.08-0.894c-0.152-1.828-0.273-3.664-0.357-5.51
	c-0.015-0.314-0.025-0.628-0.036-0.944c-0.075-1.91-0.125-3.825-0.125-5.751c0-1.515,0.033-3.022,0.083-4.526
	c0.015-0.49,0.032-0.98,0.054-1.471c0.012-0.306,0.018-0.612,0.032-0.917H110.703c-11.463,0-20.757-9.294-20.757-20.757
	s9.294-20.757,20.757-20.757h112.094c0.184-0.519,0.393-1.025,0.583-1.542c0.396-1.077,0.797-2.153,1.218-3.219
	c0.286-0.726,0.587-1.449,0.884-2.171c0.447-1.079,0.902-2.155,1.373-3.22c0.313-0.703,0.63-1.402,0.952-2.099
	c0.244-0.529,0.47-1.066,0.72-1.59c0.27-0.567,0.562-1.124,0.84-1.687c0.286-0.583,0.574-1.165,0.869-1.744
	c0.571-1.122,1.162-2.233,1.762-3.339c0.298-0.548,0.588-1.102,0.894-1.645c0.695-1.244,1.414-2.471,2.146-3.693
	c0.226-0.376,0.44-0.761,0.668-1.136c0.948-1.551,1.925-3.084,2.928-4.596c0.349-0.526,0.714-1.038,1.07-1.558
	c0.678-0.994,1.357-1.986,2.06-2.961c0.459-0.639,0.934-1.269,1.403-1.901c0.627-0.841,1.256-1.68,1.901-2.507
	c0.231-0.299,0.45-0.607,0.685-0.904h-135.05c-11.463,0-20.757-9.294-20.757-20.757c0-11.463,9.294-20.757,20.757-20.757h187.233
	c0.091-0.044,0.188-0.083,0.281-0.127c1.257-0.591,2.528-1.157,3.805-1.712c0.317-0.138,0.63-0.282,0.948-0.419
	c1.405-0.599,2.822-1.171,4.247-1.726c0.199-0.079,0.394-0.161,0.594-0.238c14.587-5.609,30.295-8.935,46.692-9.525
	c1.753-0.064,3.515-0.095,5.283-0.095c7.048,0,13.975,0.515,20.757,1.489v-63.225c-0.286,11.214-9.446,20.221-20.729,20.221
	c-0.011,0-0.019,0-0.028,0h-20.757H221.407c-11.463,0-20.757-9.294-20.757-20.757V41.514V20.757c0-8.394,5.056-15.963,12.814-19.175
	c2.68-1.111,5.502-1.611,8.29-1.564C221.638,0.015,221.523,0,221.407,0H27.676C16.212,0,6.919,9.294,6.919,20.757v415.139
	c0,11.463,9.294,20.757,20.757,20.757h218.083c-1.222-1.546-2.408-3.122-3.569-4.717C242.092,451.8,241.992,451.665,241.894,451.53z
	"/>
<path style="fill:#D6D5D8;" d="M374.569,144.573c-0.036-0.037-0.068-0.08-0.105-0.118L236.084,6.08l137.754,137.751
	C374.093,144.064,374.325,144.325,374.569,144.573z"/>
<g>
	<path style="fill:#57565C;" d="M110.703,318.273c-11.463,0-20.757,9.294-20.757,20.757s9.294,20.757,20.757,20.757h103.953
		c0.024-0.495,0.069-0.982,0.097-1.475c0.058-1.017,0.119-2.034,0.201-3.046c0.068-0.865,0.149-1.726,0.232-2.586
		c0.083-0.847,0.165-1.694,0.262-2.536c0.108-0.949,0.23-1.893,0.357-2.837c0.061-0.452,0.107-0.911,0.172-1.362
		c0.044-0.307,0.102-0.609,0.148-0.916c0.155-1.035,0.325-2.065,0.504-3.093c0.126-0.732,0.255-1.464,0.39-2.192
		c0.188-0.998,0.39-1.99,0.599-2.979c0.159-0.758,0.32-1.514,0.491-2.268c0.214-0.945,0.443-1.882,0.675-2.82
		c0.195-0.786,0.393-1.573,0.602-2.355c0.241-0.901,0.494-1.796,0.75-2.69c0.138-0.479,0.26-0.965,0.403-1.442
		c0.089-0.302,0.195-0.596,0.286-0.895c0.302-0.985,0.619-1.962,0.941-2.938c0.249-0.756,0.494-1.511,0.754-2.26
		c0.095-0.273,0.18-0.549,0.275-0.822H110.703V318.273z"/>
	<path style="fill:#57565C;" d="M110.703,235.246c-11.463,0-20.757,9.294-20.757,20.757c0,11.463,9.294,20.757,20.757,20.757
		h135.048c0.405-0.513,0.828-1.014,1.238-1.522c0.27-0.331,0.537-0.663,0.808-0.992c0.837-1.014,1.692-2.016,2.559-3.007
		c0.17-0.195,0.336-0.393,0.506-0.588c1.067-1.208,2.155-2.401,3.259-3.574c0.076-0.08,0.151-0.155,0.227-0.234
		c0.992-1.048,2.002-2.08,3.026-3.097c0.335-0.333,0.677-0.661,1.014-0.991c0.779-0.76,1.564-1.512,2.359-2.256
		c0.408-0.381,0.819-0.758,1.233-1.135c0.751-0.684,1.51-1.359,2.274-2.029c0.435-0.379,0.866-0.761,1.305-1.135
		c0.804-0.688,1.62-1.36,2.44-2.031c0.397-0.324,0.789-0.655,1.189-0.974c1.178-0.941,2.368-1.867,3.573-2.77
		c0.426-0.321,0.862-0.625,1.292-0.942c0.811-0.595,1.623-1.186,2.447-1.764c0.584-0.41,1.175-0.808,1.764-1.209
		c0.684-0.465,1.369-0.929,2.062-1.381c0.639-0.421,1.283-0.834,1.93-1.243c0.656-0.415,1.315-0.823,1.979-1.229
		c0.674-0.412,1.349-0.825,2.031-1.227c0.65-0.382,1.308-0.754,1.965-1.126c0.699-0.397,1.393-0.8,2.101-1.186
		c0.674-0.369,1.36-0.721,2.042-1.078c1.335-0.703,2.683-1.385,4.041-2.047c0.508-0.248,1.01-0.505,1.522-0.746L110.703,235.246
		L110.703,235.246z"/>
</g>
<path style="fill:#C6C5CA;" d="M200.65,20.757v20.757v117.619c0,11.463,9.294,20.757,20.757,20.757h117.622h20.757
	c0.008,0,0.017,0,0.028,0c11.283,0,20.443-9.008,20.729-20.221c0.004-0.18,0.028-0.356,0.028-0.536c0-4.966-1.763-9.507-4.672-13.08
	c-0.032-0.04-0.066-0.083-0.1-0.125c-0.386-0.469-0.8-0.92-1.23-1.356c-0.244-0.248-0.476-0.508-0.731-0.742L236.083,6.079
	c-0.441-0.441-0.908-0.855-1.384-1.252c-0.133-0.111-0.268-0.214-0.403-0.322c-0.368-0.292-0.743-0.57-1.128-0.836
	c-0.14-0.095-0.277-0.194-0.419-0.285c-0.5-0.327-1.009-0.637-1.535-0.919c-0.014-0.007-0.028-0.017-0.04-0.024
	c-0.544-0.291-1.102-0.548-1.667-0.789c-0.152-0.065-0.31-0.123-0.465-0.184c-0.423-0.167-0.851-0.321-1.286-0.461
	c-0.176-0.055-0.35-0.113-0.527-0.166c-0.541-0.158-1.088-0.299-1.643-0.412c-0.044-0.01-0.087-0.024-0.131-0.032
	c-0.588-0.118-1.183-0.201-1.784-0.266c-0.187-0.021-0.374-0.033-0.562-0.05c-0.45-0.036-0.902-0.06-1.356-0.066
	c-2.79-0.047-5.611,0.452-8.29,1.564C205.706,4.793,200.65,12.363,200.65,20.757z"/>
<path style="fill:#830018;" d="M401.299,345.945h-41.514h-41.514c-11.463,0-20.757,9.294-20.757,20.757s9.294,20.757,20.757,20.757
	h41.514h41.514c11.463,0,20.757-9.294,20.757-20.757S412.763,345.945,401.299,345.945z"/>
<path style="fill:#FF0C38;" d="M318.272,387.459c-11.463,0-20.757-9.294-20.757-20.757s9.294-20.757,20.757-20.757h41.514V221.404
	c-1.769,0-3.531,0.033-5.283,0.095c-5.232,0.192-10.394,0.664-15.474,1.393c-10.836,1.557-21.288,4.313-31.22,8.131
	c-0.199,0.077-0.394,0.159-0.594,0.238c-1.425,0.554-2.844,1.126-4.247,1.726c-0.318,0.137-0.631,0.281-0.948,0.419
	c-1.277,0.555-2.549,1.122-3.805,1.712c-0.606,0.284-1.203,0.581-1.803,0.873c-1.357,0.661-2.705,1.344-4.041,2.047
	c-0.681,0.358-1.367,0.71-2.042,1.078c-0.707,0.386-1.402,0.789-2.101,1.186c-0.657,0.374-1.315,0.744-1.965,1.126
	c-0.682,0.401-1.356,0.815-2.031,1.227c-0.664,0.405-1.323,0.814-1.979,1.229c-0.648,0.41-1.291,0.823-1.93,1.243
	c-0.693,0.454-1.378,0.916-2.062,1.381c-0.591,0.401-1.182,0.8-1.764,1.209c-0.823,0.578-1.636,1.171-2.447,1.764
	c-0.43,0.315-0.866,0.621-1.292,0.942c-1.205,0.905-2.397,1.829-3.573,2.77c-0.4,0.321-0.792,0.652-1.189,0.974
	c-0.819,0.67-1.636,1.344-2.44,2.031c-0.439,0.374-0.872,0.756-1.305,1.135c-0.765,0.668-1.522,1.344-2.274,2.029
	c-0.414,0.376-0.825,0.754-1.233,1.135c-0.796,0.743-1.582,1.496-2.359,2.256c-0.338,0.329-0.679,0.657-1.014,0.991
	c-1.023,1.017-2.034,2.048-3.026,3.097c-0.076,0.079-0.151,0.154-0.227,0.234c-1.106,1.173-2.192,2.365-3.259,3.574
	c-0.17,0.195-0.336,0.393-0.506,0.588c-0.866,0.991-1.72,1.993-2.559,3.007c-0.271,0.328-0.538,0.661-0.808,0.992
	c-0.65,0.8-1.29,1.611-1.923,2.426c-0.645,0.828-1.274,1.665-1.901,2.507c-0.469,0.632-0.944,1.262-1.403,1.901
	c-0.702,0.976-1.382,1.968-2.06,2.961c-0.356,0.52-0.721,1.032-1.07,1.558c-1.003,1.514-1.982,3.044-2.928,4.596
	c-0.228,0.375-0.443,0.76-0.668,1.136c-0.731,1.222-1.452,2.449-2.146,3.693c-0.306,0.544-0.596,1.097-0.894,1.645
	c-0.601,1.106-1.19,2.218-1.762,3.339c-0.295,0.578-0.583,1.161-0.869,1.744c-0.533,1.085-1.053,2.177-1.56,3.277
	c-0.321,0.697-0.641,1.396-0.952,2.099c-0.47,1.066-0.926,2.141-1.373,3.22c-0.298,0.722-0.598,1.445-0.884,2.171
	c-0.421,1.066-0.822,2.142-1.218,3.219c-0.288,0.786-0.583,1.571-0.858,2.364c-0.26,0.749-0.505,1.504-0.754,2.26
	c-0.321,0.976-0.639,1.953-0.941,2.938c-0.238,0.776-0.465,1.557-0.689,2.337c-0.257,0.894-0.509,1.789-0.75,2.69
	c-0.208,0.782-0.405,1.569-0.602,2.355c-0.232,0.938-0.462,1.876-0.675,2.82c-0.172,0.753-0.332,1.511-0.491,2.268
	c-0.208,0.991-0.411,1.983-0.599,2.979c-0.137,0.728-0.264,1.46-0.39,2.192c-0.178,1.028-0.349,2.058-0.504,3.093
	c-0.113,0.757-0.217,1.518-0.32,2.278c-0.127,0.944-0.249,1.888-0.357,2.837c-0.097,0.843-0.18,1.69-0.262,2.536
	c-0.084,0.861-0.165,1.721-0.232,2.586c-0.08,1.012-0.141,2.029-0.201,3.046c-0.046,0.796-0.097,1.591-0.13,2.393
	c-0.022,0.49-0.037,0.98-0.054,1.471c-0.047,1.504-0.083,3.011-0.083,4.526c0,1.928,0.05,3.841,0.125,5.751
	c0.012,0.316,0.022,0.63,0.036,0.944c0.084,1.846,0.202,3.682,0.357,5.51c0.025,0.299,0.053,0.596,0.08,0.894
	c0.172,1.903,0.369,3.799,0.614,5.679c0.001,0.014,0.003,0.029,0.006,0.043c0.257,1.977,0.558,3.941,0.894,5.894
	c0.017,0.091,0.029,0.184,0.046,0.275c0.336,1.93,0.714,3.846,1.125,5.75c0.028,0.125,0.054,0.25,0.082,0.375
	c1.299,5.914,2.953,11.697,4.947,17.322c1.261,3.554,2.656,7.043,4.176,10.466c0.029,0.064,0.055,0.127,0.084,0.19
	c0.711,1.596,1.457,3.174,2.224,4.741c0.13,0.264,0.262,0.527,0.393,0.79c0.761,1.526,1.54,3.043,2.352,4.54
	c0.008,0.012,0.014,0.025,0.021,0.036c0.924,1.699,1.887,3.372,2.877,5.029c0.115,0.192,0.227,0.385,0.34,0.576
	c0.967,1.601,1.966,3.181,2.992,4.742c0.136,0.205,0.27,0.412,0.407,0.617c1.048,1.576,2.12,3.132,3.227,4.663
	c0.098,0.136,0.198,0.27,0.296,0.405c1.161,1.596,2.348,3.172,3.57,4.717h-0.001c26.634,33.69,67.847,55.348,114.027,55.348V387.455
	h-41.507V387.459z"/>
<g>
	<path style="fill:#B4002B;" d="M227.805,306.021c0.506-1.1,1.027-2.192,1.56-3.277c-0.277,0.563-0.569,1.119-0.84,1.687
		C228.276,304.956,228.049,305.494,227.805,306.021z"/>
	<path style="fill:#B4002B;" d="M307.217,231.262c-1.425,0.555-2.844,1.126-4.247,1.726
		C304.373,232.388,305.79,231.815,307.217,231.262z"/>
	<path style="fill:#B4002B;" d="M245.067,277.663c-0.645,0.828-1.274,1.665-1.901,2.507
		C243.792,279.328,244.422,278.491,245.067,277.663z"/>
	<path style="fill:#B4002B;" d="M302.022,233.407c-1.277,0.555-2.549,1.122-3.805,1.712
		C299.473,234.528,300.745,233.962,302.022,233.407z"/>
	<path style="fill:#B4002B;" d="M339.029,222.893c5.08-0.729,10.24-1.201,15.474-1.393c-16.398,0.589-32.105,3.916-46.692,9.525
		C317.741,227.206,328.192,224.45,339.029,222.893z"/>
	<path style="fill:#B4002B;" d="M242.19,451.935c1.161,1.596,2.347,3.172,3.569,4.717h0.001
		C244.538,455.107,243.349,453.531,242.19,451.935z"/>
	<path style="fill:#B4002B;" d="M214.488,366.702c0,1.928,0.05,3.841,0.125,5.751C214.537,370.543,214.488,368.63,214.488,366.702z"
		/>
	<path style="fill:#B4002B;" d="M227.059,425.794c0.714,1.596,1.456,3.176,2.224,4.741
		C228.516,428.968,227.771,427.389,227.059,425.794z"/>
	<path style="fill:#B4002B;" d="M232.049,435.903c0.923,1.699,1.887,3.372,2.877,5.029
		C233.938,439.273,232.974,437.6,232.049,435.903z"/>
	<path style="fill:#B4002B;" d="M214.648,373.397c0.084,1.846,0.205,3.681,0.357,5.51
		C214.852,377.079,214.733,375.243,214.648,373.397z"/>
	<path style="fill:#B4002B;" d="M231.995,297.662c-0.601,1.106-1.19,2.218-1.762,3.339
		C230.805,299.88,231.396,298.767,231.995,297.662z"/>
	<path style="fill:#B4002B;" d="M224.598,313.513c-0.421,1.066-0.822,2.142-1.218,3.219
		C223.776,315.654,224.177,314.579,224.598,313.513z"/>
	<path style="fill:#B4002B;" d="M235.036,292.323c-0.731,1.222-1.452,2.449-2.146,3.693
		C233.584,294.772,234.304,293.545,235.036,292.323z"/>
	<path style="fill:#B4002B;" d="M214.625,360.705c-0.022,0.49-0.039,0.98-0.054,1.471
		C214.586,361.684,214.602,361.194,214.625,360.705z"/>
	<path style="fill:#B4002B;" d="M229.677,431.325c0.761,1.526,1.54,3.044,2.352,4.54
		C231.218,434.368,230.437,432.853,229.677,431.325z"/>
	<path style="fill:#B4002B;" d="M226.855,308.121c-0.47,1.066-0.926,2.141-1.373,3.22
		C225.929,310.261,226.384,309.186,226.855,308.121z"/>
	<path style="fill:#B4002B;" d="M238.632,286.59c-1.003,1.512-1.982,3.044-2.928,4.596
		C236.652,289.636,237.63,288.104,238.632,286.59z"/>
	<path style="fill:#B4002B;" d="M216.646,391.693c0.335,1.93,0.714,3.846,1.125,5.75
		C217.359,395.539,216.983,393.622,216.646,391.693z"/>
	<path style="fill:#B4002B;" d="M238.667,446.866c1.046,1.576,2.121,3.132,3.227,4.663
		C240.787,449.996,239.714,448.441,238.667,446.866z"/>
	<path style="fill:#B4002B;" d="M241.762,282.072c-0.703,0.976-1.382,1.968-2.06,2.961
		C240.38,284.04,241.061,283.048,241.762,282.072z"/>
	<path style="fill:#B4002B;" d="M215.705,385.524c0.257,1.977,0.558,3.941,0.894,5.894
		C216.263,389.464,215.961,387.5,215.705,385.524z"/>
	<path style="fill:#B4002B;" d="M235.268,441.507c0.967,1.602,1.966,3.181,2.992,4.742
		C237.233,444.687,236.235,443.108,235.268,441.507z"/>
	<path style="fill:#B4002B;" d="M222.8,415.139c-1.994-5.625-3.649-11.407-4.947-17.322c2.114,9.655,5.189,18.952,9.123,27.788
		C225.456,422.182,224.061,418.692,222.8,415.139z"/>
	<path style="fill:#B4002B;" d="M215.085,379.801c0.17,1.903,0.371,3.797,0.614,5.679
		C215.454,383.599,215.257,381.704,215.085,379.801z"/>
	<path style="fill:#B4002B;" d="M219.388,329.32c-0.208,0.782-0.407,1.569-0.602,2.355
		C218.982,330.889,219.18,330.103,219.388,329.32z"/>
	<path style="fill:#B4002B;" d="M218.11,334.497c-0.172,0.754-0.332,1.51-0.491,2.268
		C217.778,336.007,217.939,335.248,218.11,334.497z"/>
	<path style="fill:#B4002B;" d="M215.448,350.143c-0.097,0.843-0.18,1.69-0.262,2.536
		C215.268,351.833,215.351,350.988,215.448,350.143z"/>
	<path style="fill:#B4002B;" d="M222.522,319.095c-0.26,0.749-0.505,1.504-0.754,2.26
		C222.015,320.6,222.262,319.844,222.522,319.095z"/>
	<path style="fill:#B4002B;" d="M214.954,355.266c-0.082,1.012-0.141,2.029-0.201,3.046
		C214.811,357.295,214.874,356.279,214.954,355.266z"/>
	<path style="fill:#B4002B;" d="M215.805,347.307c0.102-0.761,0.208-1.522,0.32-2.278c-0.046,0.307-0.104,0.609-0.148,0.916
		C215.912,346.396,215.866,346.854,215.805,347.307z"/>
	<path style="fill:#B4002B;" d="M217.02,339.744c-0.137,0.728-0.264,1.46-0.39,2.192
		C216.756,341.203,216.883,340.472,217.02,339.744z"/>
	<path style="fill:#B4002B;" d="M220.138,326.63c0.224-0.78,0.451-1.562,0.689-2.337c-0.091,0.3-0.198,0.595-0.286,0.895
		C220.398,325.666,220.276,326.151,220.138,326.63z"/>
	<path style="fill:#B4002B;" d="M254.349,266.843c-0.076,0.079-0.151,0.154-0.227,0.234
		C254.197,266.997,254.273,266.922,254.349,266.843z"/>
	<path style="fill:#B4002B;" d="M265.561,256.202c-0.439,0.374-0.872,0.756-1.305,1.135
		C264.689,256.956,265.122,256.576,265.561,256.202z"/>
	<path style="fill:#B4002B;" d="M261.981,259.365c-0.414,0.376-0.825,0.754-1.233,1.135
		C261.157,260.12,261.567,259.742,261.981,259.365z"/>
	<path style="fill:#B4002B;" d="M247.797,274.245c-0.271,0.328-0.538,0.661-0.808,0.992
		C247.26,274.907,247.526,274.575,247.797,274.245z"/>
	<path style="fill:#B4002B;" d="M250.862,270.652c-0.17,0.195-0.336,0.393-0.506,0.588
		C250.526,271.045,250.692,270.845,250.862,270.652z"/>
	<path style="fill:#B4002B;" d="M286.266,241.43c-0.682,0.403-1.356,0.815-2.031,1.227
		C284.91,242.245,285.584,241.831,286.266,241.43z"/>
	<path style="fill:#B4002B;" d="M296.414,235.992c-1.358,0.661-2.705,1.344-4.041,2.047
		C293.708,237.335,295.056,236.653,296.414,235.992z"/>
	<path style="fill:#B4002B;" d="M290.332,239.116c-0.707,0.386-1.402,0.789-2.101,1.186
		C288.93,239.905,289.625,239.502,290.332,239.116z"/>
	<path style="fill:#B4002B;" d="M282.257,243.885c-0.648,0.41-1.291,0.823-1.93,1.243
		C280.966,244.708,281.61,244.295,282.257,243.885z"/>
	<path style="fill:#B4002B;" d="M278.265,246.51c-0.591,0.401-1.182,0.8-1.764,1.209C277.083,247.31,277.674,246.911,278.265,246.51
		z"/>
	<path style="fill:#B4002B;" d="M274.054,249.484c-0.43,0.317-0.866,0.621-1.292,0.942
		C273.188,250.105,273.624,249.799,274.054,249.484z"/>
	<path style="fill:#B4002B;" d="M257.374,263.746c0.335-0.333,0.677-0.661,1.014-0.991
		C258.051,263.085,257.709,263.412,257.374,263.746z"/>
	<path style="fill:#B4002B;" d="M269.189,253.196c-0.4,0.321-0.792,0.65-1.189,0.974
		C268.397,253.847,268.789,253.516,269.189,253.196z"/>
</g>
<g>
</g>
<g>
</g>
<g>
</g>
<g>
</g>
<g>
</g>
<g>
</g>
<g>
</g>
<g>
</g>
<g>
</g>
<g>
</g>
<g>
</g>
<g>
</g>
<g>
</g>
<g>
</g>
<g>
</g>
</svg>
